<?xml version="1.0" encoding="UTF-8" standalone="no"?><!DOCTYPE svg PUBLIC "-//W3C//DTD SVG 1.1//EN" "http://www.w3.org/Graphics/SVG/1.1/DTD/svg11.dtd"><svg width="100%" height="100%" viewBox="0 0 28942 28942" version="1.1" xmlns="http://www.w3.org/2000/svg" xmlns:xlink="http://www.w3.org/1999/xlink" xml:space="preserve" xmlns:serif="http://www.serif.com/" style="fill-rule:evenodd;clip-rule:evenodd;stroke-linejoin:round;stroke-miterlimit:2;"><path d="M11555.9,5786.62l4585.83,0l0,4.392l3211.75,-0c2928.8,-0 5306.62,1925.19 5306.62,4493.83c0,1898.08 -1298.38,3372.07 -3158.02,4095.96l1507.48,3655.19c1472.1,3569.41 1971.68,4019.33 3677.6,5112.21l-1352.93,-0.004c-1393.98,23.804 -3222.03,-1021.58 -4169.5,-2980.95l-2222.38,-5388.58l-2800.66,-0l0,2127.22l-2014.88,-4885.5l-0,-3794.08c-0,-1104.39 -1142.99,-2152.85 -2319.6,-2155.54l-134.167,-0l-117.187,-284.146l0.025,0.008Zm4585.83,1073.06l0,6850.26l2449.86,-0c2304.48,-0 3312.68,-1853.73 3312.68,-3425.12c0,-1571.39 -1008.2,-3425.14 -3312.68,-3425.14l-2449.86,0Zm-3295.9,11171.9l-7040.12,-0l-2108.39,5112.21l-1449.34,0l7158.5,-17357.2l1113.08,-0l5050.08,12245c1472.12,3569.41 1971.69,4019.33 3677.6,5112.21l-1352.93,0c-1393.98,23.804 -3222.03,-1021.58 -4169.5,-2980.95l-878.975,-2131.25l-0.004,-0.004Zm-3520.07,-8535.12l-3079.32,7466.42l6158.67,-0l-3079.33,-7466.42l-0.021,-0Z" style="fill:#fff;"/></svg>